# Blender v2.76 (sub 0) OBJ File: 'Box2.blend'
# www.blender.org
mtllib box.mtl
o Cube_Cube.003
v -1.000000 0.000000 1.000000
v -1.000000 2.000000 1.000000
v -1.000000 0.000000 -1.000000
v -1.000000 2.000000 -1.000000
v 1.000000 0.000000 1.000000
v 1.000000 2.000000 1.000000
v 1.000000 0.000000 -1.000000
v 1.000000 2.000000 -1.000000
v 1.000000 0.040000 0.960000
v 1.000000 1.960000 0.960000
v 1.000000 0.040000 -0.960000
v 1.000000 1.960000 -0.960000
v 0.980000 0.040000 0.960000
v 0.980000 1.960000 0.960000
v 0.980000 0.040000 -0.960000
v 0.980000 1.960000 -0.960000
v -0.960000 0.040000 1.000000
v -0.960000 1.960000 1.000000
v 0.960000 0.040000 1.000000
v 0.960000 1.960000 1.000000
v -0.960000 0.040000 0.980000
v -0.960000 1.960000 0.980000
v 0.960000 0.040000 0.980000
v 0.960000 1.960000 0.980000
v -1.000000 0.040000 0.960000
v -1.000000 1.960000 0.960000
v -1.000000 0.040000 -0.960000
v -1.000000 1.960000 -0.960000
v -0.980000 0.040000 0.960000
v -0.980000 1.960000 0.960000
v -0.980000 0.040000 -0.960000
v -0.980000 1.960000 -0.960000
v -0.960000 0.040000 -1.000000
v -0.960000 1.960000 -1.000000
v 0.960000 0.040000 -1.000000
v 0.960000 1.960000 -1.000000
v -0.960000 0.040000 -0.980000
v -0.960000 1.960000 -0.980000
v 0.960000 0.040000 -0.980000
v 0.960000 1.960000 -0.980000
v -0.960000 2.000000 0.960000
v -0.960000 2.000000 -0.960000
v 0.960000 2.000000 0.960000
v 0.960000 2.000000 -0.960000
v -0.960000 1.980000 0.960000
v -0.960000 1.980000 -0.960000
v 0.960000 1.980000 0.960000
v 0.960000 1.980000 -0.960000
v -0.960000 0.000000 0.960000
v -0.960000 0.000000 -0.960000
v 0.960000 0.000000 0.960000
v 0.960000 0.000000 -0.960000
v -0.960000 0.020000 0.960000
v -0.960000 0.020000 -0.960000
v 0.960000 0.020000 0.960000
v 0.960000 0.020000 -0.960000
v -0.922786 0.040000 0.980000
v 0.960000 1.921625 0.980000
v -0.960000 0.078923 0.980000
v 0.918606 1.960000 0.980000
v -0.942092 0.057908 0.980000
v 0.937911 1.937911 0.980000
v -0.922786 0.040000 1.000000
v 0.960000 1.921625 1.000000
v -0.960000 0.078923 1.000000
v 0.918606 1.960000 1.000000
v -0.942092 0.057908 1.000000
v 0.937911 1.937911 1.000000
v 0.980000 1.924482 -0.960000
v 0.980000 0.040000 0.917243
v 0.980000 1.960000 -0.917189
v 0.980000 0.084588 0.960000
v -0.960000 1.918004 -0.980000
v 0.925425 0.040000 -0.980000
v 0.960000 0.076608 -0.980000
v -0.926921 1.960000 -0.980000
v -0.980000 0.040000 -0.928652
v -0.980000 1.918218 0.960000
v -0.980000 0.076255 -0.960000
v -0.980000 1.960000 0.925924
v -0.980000 0.056812 -0.943188
v -0.980000 1.941231 0.941231
v -0.944624 1.939153 -0.980000
v 0.942194 0.057755 -0.980000
v 0.980000 0.061827 0.938173
v 0.980000 1.940587 -0.940587
v 1.000000 0.040000 0.917243
v 1.000000 1.924482 -0.960000
v 1.000000 0.084588 0.960000
v 1.000000 1.960000 -0.917189
v 1.000000 0.061827 0.938173
v 1.000000 1.940587 -0.940587
v 0.925425 0.040000 -1.000000
v -0.960000 1.918004 -1.000000
v 0.960000 0.076608 -1.000000
v -0.926921 1.960000 -1.000000
v -0.944624 1.939153 -1.000000
v 0.942194 0.057755 -1.000000
v -1.000000 0.040000 -0.928652
v -1.000000 1.918218 0.960000
v -1.000000 0.076255 -0.960000
v -1.000000 1.960000 0.925924
v -1.000000 1.941231 0.941231
v -1.000000 0.056812 -0.943188
v -1.000000 0.000000 1.000000
v -1.000000 0.000000 1.000000
v -1.000000 0.000000 1.000000
v -1.000000 0.000000 1.000000
v -1.000000 0.000000 1.000000
v -1.000000 2.000000 1.000000
v -1.000000 2.000000 1.000000
v -1.000000 2.000000 1.000000
v -1.000000 2.000000 1.000000
v -1.000000 2.000000 1.000000
v -1.000000 2.000000 -1.000000
v -1.000000 2.000000 -1.000000
v -1.000000 2.000000 -1.000000
v -1.000000 2.000000 -1.000000
v -1.000000 2.000000 -1.000000
v -1.000000 0.000000 -1.000000
v -1.000000 0.000000 -1.000000
v -1.000000 0.000000 -1.000000
v -1.000000 0.000000 -1.000000
v -1.000000 0.000000 -1.000000
v 1.000000 2.000000 -1.000000
v 1.000000 2.000000 -1.000000
v 1.000000 2.000000 -1.000000
v 1.000000 2.000000 -1.000000
v 1.000000 2.000000 -1.000000
v 1.000000 0.000000 -1.000000
v 1.000000 0.000000 -1.000000
v 1.000000 0.000000 -1.000000
v 1.000000 0.000000 -1.000000
v 1.000000 0.000000 -1.000000
v 1.000000 2.000000 1.000000
v 1.000000 2.000000 1.000000
v 1.000000 2.000000 1.000000
v 1.000000 2.000000 1.000000
v 1.000000 2.000000 1.000000
v 1.000000 0.000000 1.000000
v 1.000000 0.000000 1.000000
v 1.000000 0.000000 1.000000
v 1.000000 0.000000 1.000000
v 1.000000 0.000000 1.000000
v 1.000000 1.960000 -0.960000
v 1.000000 1.960000 -0.960000
v 1.000000 1.960000 -0.960000
v 1.000000 0.040000 -0.960000
v 1.000000 0.040000 -0.960000
v 1.000000 0.040000 -0.960000
v 1.000000 1.960000 0.960000
v 1.000000 1.960000 0.960000
v 1.000000 1.960000 0.960000
v 1.000000 0.040000 0.960000
v 1.000000 0.040000 0.960000
v 1.000000 0.040000 0.960000
v 0.980000 1.924482 -0.960000
v 0.980000 1.924482 -0.960000
v 0.980000 1.924482 -0.960000
v 0.980000 1.924482 -0.960000
v 0.980000 0.040000 -0.960000
v 0.980000 0.040000 -0.960000
v 0.980000 1.960000 -0.917189
v 0.980000 1.960000 -0.917189
v 0.980000 1.960000 -0.917189
v 0.980000 1.960000 -0.917189
v 0.980000 1.960000 0.960000
v 0.980000 1.960000 0.960000
v 0.980000 0.084588 0.960000
v 0.980000 0.084588 0.960000
v 0.980000 0.084588 0.960000
v 0.980000 0.084588 0.960000
v 0.980000 0.040000 0.960000
v 0.980000 0.040000 0.960000
v 0.980000 0.040000 0.960000
v 0.980000 0.040000 0.917243
v 0.980000 0.040000 0.917243
v 0.980000 0.040000 0.917243
v 0.980000 0.040000 0.917243
v 0.980000 1.960000 -0.960000
v 0.980000 1.960000 -0.960000
v 0.980000 1.960000 -0.960000
v -0.960000 0.040000 1.000000
v -0.960000 0.040000 1.000000
v -0.960000 0.040000 1.000000
v -0.960000 1.960000 1.000000
v -0.960000 1.960000 1.000000
v -0.960000 1.960000 1.000000
v 0.960000 1.960000 1.000000
v 0.960000 1.960000 1.000000
v 0.960000 1.960000 1.000000
v 0.960000 0.040000 1.000000
v 0.960000 0.040000 1.000000
v 0.960000 0.040000 1.000000
v -0.960000 0.078923 0.980000
v -0.960000 0.078923 0.980000
v -0.960000 0.078923 0.980000
v -0.960000 0.078923 0.980000
v -0.960000 1.960000 0.980000
v -0.960000 1.960000 0.980000
v 0.960000 1.921625 0.980000
v 0.960000 1.921625 0.980000
v 0.960000 1.921625 0.980000
v 0.960000 1.921625 0.980000
v 0.960000 0.040000 0.980000
v 0.960000 0.040000 0.980000
v 0.918606 1.960000 0.980000
v 0.918606 1.960000 0.980000
v 0.918606 1.960000 0.980000
v 0.918606 1.960000 0.980000
v -0.922786 0.040000 0.980000
v -0.922786 0.040000 0.980000
v -0.922786 0.040000 0.980000
v -0.922786 0.040000 0.980000
v 0.960000 1.960000 0.980000
v 0.960000 1.960000 0.980000
v 0.960000 1.960000 0.980000
v -0.960000 0.040000 0.980000
v -0.960000 0.040000 0.980000
v -0.960000 0.040000 0.980000
v -1.000000 0.040000 0.960000
v -1.000000 0.040000 0.960000
v -1.000000 0.040000 0.960000
v -1.000000 1.960000 0.960000
v -1.000000 1.960000 0.960000
v -1.000000 1.960000 0.960000
v -1.000000 1.960000 -0.960000
v -1.000000 1.960000 -0.960000
v -1.000000 1.960000 -0.960000
v -1.000000 0.040000 -0.960000
v -1.000000 0.040000 -0.960000
v -1.000000 0.040000 -0.960000
v -0.980000 1.918218 0.960000
v -0.980000 1.918218 0.960000
v -0.980000 1.918218 0.960000
v -0.980000 1.918218 0.960000
v -0.980000 1.960000 0.960000
v -0.980000 1.960000 0.960000
v -0.980000 1.960000 0.960000
v -0.980000 1.960000 0.925924
v -0.980000 1.960000 0.925924
v -0.980000 1.960000 0.925924
v -0.980000 1.960000 0.925924
v -0.980000 1.960000 -0.960000
v -0.980000 1.960000 -0.960000
v -0.980000 0.076255 -0.960000
v -0.980000 0.076255 -0.960000
v -0.980000 0.076255 -0.960000
v -0.980000 0.076255 -0.960000
v -0.980000 0.040000 -0.960000
v -0.980000 0.040000 -0.960000
v -0.980000 0.040000 -0.960000
v -0.980000 0.040000 -0.928652
v -0.980000 0.040000 -0.928652
v -0.980000 0.040000 -0.928652
v -0.980000 0.040000 -0.928652
v -0.980000 0.040000 0.960000
v -0.980000 0.040000 0.960000
v -0.960000 1.960000 -1.000000
v -0.960000 1.960000 -1.000000
v -0.960000 1.960000 -1.000000
v -0.960000 0.040000 -1.000000
v -0.960000 0.040000 -1.000000
v -0.960000 0.040000 -1.000000
v 0.960000 1.960000 -1.000000
v 0.960000 1.960000 -1.000000
v 0.960000 1.960000 -1.000000
v 0.960000 0.040000 -1.000000
v 0.960000 0.040000 -1.000000
v 0.960000 0.040000 -1.000000
v -0.960000 1.918004 -0.980000
v -0.960000 1.918004 -0.980000
v -0.960000 1.918004 -0.980000
v -0.960000 1.918004 -0.980000
v -0.960000 0.040000 -0.980000
v -0.960000 0.040000 -0.980000
v -0.926921 1.960000 -0.980000
v -0.926921 1.960000 -0.980000
v -0.926921 1.960000 -0.980000
v -0.926921 1.960000 -0.980000
v 0.960000 1.960000 -0.980000
v 0.960000 1.960000 -0.980000
v 0.960000 0.076608 -0.980000
v 0.960000 0.076608 -0.980000
v 0.960000 0.076608 -0.980000
v 0.960000 0.076608 -0.980000
v 0.960000 0.040000 -0.980000
v 0.960000 0.040000 -0.980000
v 0.960000 0.040000 -0.980000
v 0.925425 0.040000 -0.980000
v 0.925425 0.040000 -0.980000
v 0.925425 0.040000 -0.980000
v 0.925425 0.040000 -0.980000
v -0.960000 1.960000 -0.980000
v -0.960000 1.960000 -0.980000
v -0.960000 1.960000 -0.980000
v -0.960000 2.000000 0.960000
v -0.960000 2.000000 0.960000
v -0.960000 2.000000 0.960000
v -0.960000 2.000000 -0.960000
v -0.960000 2.000000 -0.960000
v -0.960000 2.000000 -0.960000
v 0.960000 2.000000 -0.960000
v 0.960000 2.000000 -0.960000
v 0.960000 2.000000 -0.960000
v 0.960000 2.000000 0.960000
v 0.960000 2.000000 0.960000
v 0.960000 2.000000 0.960000
v -0.960000 1.980000 0.960000
v -0.960000 1.980000 0.960000
v -0.960000 1.980000 -0.960000
v -0.960000 1.980000 -0.960000
v 0.960000 1.980000 -0.960000
v 0.960000 1.980000 -0.960000
v 0.960000 1.980000 0.960000
v 0.960000 1.980000 0.960000
v -0.960000 0.000000 -0.960000
v -0.960000 0.000000 -0.960000
v -0.960000 0.000000 -0.960000
v -0.960000 0.000000 0.960000
v -0.960000 0.000000 0.960000
v -0.960000 0.000000 0.960000
v 0.960000 0.000000 -0.960000
v 0.960000 0.000000 -0.960000
v 0.960000 0.000000 -0.960000
v 0.960000 0.000000 0.960000
v 0.960000 0.000000 0.960000
v 0.960000 0.000000 0.960000
v -0.960000 0.020000 -0.960000
v -0.960000 0.020000 -0.960000
v -0.960000 0.020000 0.960000
v -0.960000 0.020000 0.960000
v 0.960000 0.020000 -0.960000
v 0.960000 0.020000 -0.960000
v 0.960000 0.020000 0.960000
v 0.960000 0.020000 0.960000
v 0.937911 1.937911 0.980000
v 0.937911 1.937911 0.980000
v 0.937911 1.937911 0.980000
v -0.942092 0.057908 0.980000
v -0.942092 0.057908 0.980000
v -0.942092 0.057908 0.980000
v 0.960000 1.921625 1.000000
v 0.960000 1.921625 1.000000
v -0.922786 0.040000 1.000000
v -0.922786 0.040000 1.000000
v -0.960000 0.078923 1.000000
v -0.960000 0.078923 1.000000
v 0.918606 1.960000 1.000000
v 0.918606 1.960000 1.000000
v -0.942092 0.057908 1.000000
v -0.942092 0.057908 1.000000
v -0.942092 0.057908 1.000000
v 0.937911 1.937911 1.000000
v 0.937911 1.937911 1.000000
v 0.937911 1.937911 1.000000
v 0.980000 1.940587 -0.940587
v 0.980000 1.940587 -0.940587
v 0.980000 1.940587 -0.940587
v 0.942194 0.057755 -0.980000
v 0.942194 0.057755 -0.980000
v 0.942194 0.057755 -0.980000
v -0.980000 0.056812 -0.943188
v -0.980000 0.056812 -0.943188
v -0.980000 0.056812 -0.943188
v -0.980000 1.941231 0.941231
v -0.980000 1.941231 0.941231
v -0.980000 1.941231 0.941231
v -1.000000 1.941231 0.941231
v -1.000000 1.941231 0.941231
v -1.000000 1.941231 0.941231
v -0.944624 1.939153 -0.980000
v -0.944624 1.939153 -0.980000
v -0.944624 1.939153 -0.980000
v 0.960000 0.076608 -1.000000
v 0.960000 0.076608 -1.000000
v 0.980000 0.061827 0.938173
v 0.980000 0.061827 0.938173
v 0.980000 0.061827 0.938173
v 1.000000 1.940587 -0.940587
v 1.000000 1.940587 -0.940587
v 1.000000 1.940587 -0.940587
v 1.000000 0.040000 0.917243
v 1.000000 0.040000 0.917243
v 1.000000 1.924482 -0.960000
v 1.000000 1.924482 -0.960000
v 1.000000 0.084588 0.960000
v 1.000000 0.084588 0.960000
v 1.000000 1.960000 -0.917189
v 1.000000 1.960000 -0.917189
v 1.000000 0.061827 0.938173
v 1.000000 0.061827 0.938173
v 1.000000 0.061827 0.938173
v 0.925425 0.040000 -1.000000
v 0.925425 0.040000 -1.000000
v -0.960000 1.918004 -1.000000
v -0.960000 1.918004 -1.000000
v -0.926921 1.960000 -1.000000
v -0.926921 1.960000 -1.000000
v -0.944624 1.939153 -1.000000
v -0.944624 1.939153 -1.000000
v -0.944624 1.939153 -1.000000
v 0.942194 0.057755 -1.000000
v 0.942194 0.057755 -1.000000
v 0.942194 0.057755 -1.000000
v -1.000000 0.040000 -0.928652
v -1.000000 0.040000 -0.928652
v -1.000000 1.918218 0.960000
v -1.000000 1.918218 0.960000
v -1.000000 0.076255 -0.960000
v -1.000000 0.076255 -0.960000
v -1.000000 1.960000 0.925924
v -1.000000 1.960000 0.925924
v -1.000000 0.056812 -0.943188
v -1.000000 0.056812 -0.943188
v -1.000000 0.056812 -0.943188
vt 1.428878 4.579180
vt 1.496917 4.506107
vt 4.762815 4.506107
vt 4.830855 0.925530
vt 4.898894 0.998603
vt 4.898894 4.506107
vt 4.830855 4.579181
vt 4.898893 4.652254
vt 4.898894 8.159758
vt 1.428878 8.232832
vt 1.496917 8.159758
vt 4.762815 8.159758
vt 1.360837 4.652254
vt -1.905058 4.652254
vt 4.830855 -2.728119
vt 4.898894 -2.655047
vt 4.898895 0.852457
vt -4.854675 1.217824
vt -4.820655 1.299278
vt -4.854675 4.725327
vt 8.232832 8.232830
vt 8.164792 8.159758
vt 8.164791 4.652253
vt 8.232830 4.579180
vt 4.830855 8.232832
vt -4.033375 -4.812555
vt -6.295625 -2.373575
vt -6.295626 -7.232831
vt -4.786636 8.232832
vt -4.820656 8.167946
vt -4.786636 4.725327
vt -4.616535 4.725327
vt -4.650556 1.295934
vt -4.616537 1.217824
vt -4.888695 4.725327
vt -4.854675 8.154622
vt -4.888695 8.232832
vt -1.905060 4.579180
vt -1.939081 1.147297
vt -1.905061 1.071677
vt 4.762815 4.652254
vt 1.496917 4.652254
vt -1.973099 5.802972
vt -4.236977 8.232832
vt -4.236977 3.370114
vt -4.820656 4.796432
vt -4.854675 8.232832
vt -1.837020 4.579180
vt -1.871040 1.139661
vt -1.837020 1.071677
vt -4.718596 4.725327
vt -4.752615 4.655223
vt -4.718596 1.217824
vt -4.650558 4.725327
vt -4.616537 8.175564
vt -4.650558 8.232832
vt 4.762815 0.998604
vt 1.496917 0.998604
vt 1.428878 0.925531
vt -1.963808 1.497040
vt -1.992404 1.532559
vt -1.992404 1.466328
vt -4.684577 4.787579
vt -4.752616 4.791558
vt -4.582517 4.725327
vt -4.548497 4.801657
vt -4.582517 8.232832
vt -1.871040 4.516018
vt 8.164791 4.506107
vt 8.164791 0.998603
vt 8.232830 0.925530
vt -1.997893 1.466329
vt -1.997893 1.399452
vt -1.967605 1.431887
vt -4.514477 4.725327
vt -4.548497 1.278254
vt -4.514477 1.217824
vt -4.616537 8.165955
vt -4.888694 1.217824
vt -4.854675 1.294542
vt -4.820655 4.725327
vt -4.820655 1.217824
vt 8.232830 -2.728120
vt 8.164791 -2.655048
vt 8.164792 0.852456
vt -4.684577 8.232832
vt -4.718597 8.232832
vt -4.548497 4.725327
vt -4.582517 1.217824
vt -4.684576 4.725327
vt -4.786635 1.217824
vt -4.752615 1.217824
vt -4.752615 4.725327
vt 1.360838 8.159758
vt -1.973099 4.579181
vt -1.905058 8.159758
vt -1.973098 8.232832
vt 4.830853 -2.581974
vt 1.564957 0.925530
vt -4.684576 1.217824
vt -4.650556 1.217824
vt -4.514477 8.232832
vt -4.548497 8.232832
vt -1.971920 1.185848
vt -2.002383 1.224237
vt -2.002383 1.153131
vt -1.939082 1.153131
vt 5.037345 -6.164518
vt 8.232830 -6.164520
vt -1.939082 1.980874
vt -1.973101 1.980874
vt -1.973101 1.940521
vt -4.922715 4.758043
vt -4.888696 4.758043
vt -4.888695 8.197563
vt 1.571116 -2.657593
vt 1.636391 -2.657593
vt 1.598818 -2.617240
vt 1.636391 -2.581974
vt -4.241343 8.228834
vt -4.288159 8.232832
vt -4.286767 3.375806
vt -4.332921 8.231010
vt -4.332921 3.368294
vt -4.922715 4.725327
vt -4.922715 4.686937
vt -4.888695 4.686937
vt -4.922715 1.250539
vt -1.973102 1.900168
vt -1.939082 1.900168
vt -1.939082 1.940521
vt -4.922715 8.197563
vt -1.974684 1.111551
vt -2.011811 1.153131
vt -2.011811 1.071678
vt 1.636391 -6.026315
vt 4.830853 -6.026315
vt -4.033375 -5.823811
vt -0.838548 -5.823811
vt -4.033375 -2.373575
vt -1.939082 1.071678
vt -7.232831 1.071677
vt -7.232831 -2.357618
vt -4.042778 -2.357618
vt -1.939082 1.399452
vt -0.838548 -3.798666
vt 1.428878 -1.358936
vt -0.838548 1.071677
vt -1.939082 1.466328
vt -4.042778 1.071677
vt -4.042778 -2.373575
vt -0.838548 -2.373575
vt -1.939082 1.869455
vt -1.973101 1.869455
vt -1.973101 1.833937
vt -1.939082 1.732773
vt -1.973101 1.732773
vt -1.973101 1.690731
vt -1.984000 1.224237
vt -1.939082 1.283388
vt -1.984000 1.278488
vt -1.984000 1.322733
vt -1.995349 1.322733
vt -1.939082 1.322733
vt -1.969193 1.360816
vt -1.995349 1.399452
vt -1.973101 1.767061
vt -1.939082 1.767061
vt -1.939082 1.799496
vt -4.956734 4.725327
vt -4.956734 1.278254
vt -5.024774 4.790213
vt -4.990755 4.790213
vt -4.990754 8.232832
vt -4.616537 4.689864
vt -4.582517 4.689864
vt 1.636391 -2.735803
vt 1.603370 -2.700339
vt 1.575976 -2.735803
vt 1.554134 -3.924499
vt 1.564957 0.922948
vt 1.511330 0.924266
vt 1.459904 0.925530
vt 1.459905 -3.933724
vt 1.502632 -3.929541
vt -1.973101 1.572432
vt -1.939082 1.572432
vt -1.939082 1.614013
vt -4.582517 4.647119
vt -4.616537 4.647119
vt -1.973101 1.532559
vt -1.939082 1.532559
vt -4.514477 3.362489
vt -4.470383 3.361181
vt -4.468107 8.228817
vt -4.424168 8.221404
vt -1.939082 1.690731
vt -1.973101 1.652649
vt -4.990754 1.338254
vt -4.956734 1.338254
vt -4.956737 4.782595
vt -1.973101 1.799496
vt -1.939082 1.833937
vt -1.939082 1.652649
vt -1.973101 1.614013
vt -4.332921 8.222933
vt -4.383180 8.228385
vt -4.380560 3.359950
vt -4.424168 3.363322
vt -4.922715 4.782595
vt -4.922715 8.232832
vt -4.956734 8.232832
vt -4.990755 4.787579
vt -4.820656 8.232832
vt -1.939080 4.579180
vt -1.871040 1.071677
vt -1.871040 4.579180
vt -4.616537 8.232832
vt -4.752616 8.232832
vt -4.548497 1.217824
vt 1.428878 1.071677
vt 1.564957 -2.581972
vt -4.236977 3.372226
vt -4.888694 1.250539
vt -4.922715 1.278254
vt -5.024774 8.232832
vt -4.428856 3.359949
vt -4.990755 4.782595
vt -4.342852 3.357034
vt -4.424168 8.232832
vt -4.956734 4.787579
vn -1.000000 0.000000 0.000000
vn 0.000000 0.000000 -1.000000
vn 1.000000 0.000000 0.000000
vn 0.000000 0.000000 1.000000
vn 0.000000 -1.000000 0.000000
vn 0.000000 1.000000 0.000000
vn 0.753000 0.658000 0.000000
vn 0.706900 -0.707300 0.000000
vn -0.761100 -0.648600 0.000000
vn -0.707500 0.706600 0.000000
vn 0.593400 0.804900 0.000000
vn -0.680000 -0.733100 0.000000
vn 0.000000 -0.654000 -0.756400
vn 0.000000 0.632000 0.774900
vn 0.727000 -0.686600 0.000000
vn 0.706400 0.707800 0.000000
vn 0.000000 -0.705700 -0.708500
vn 0.000000 0.769600 -0.638500
vn 0.000000 -0.692100 0.721800
vn 0.000000 0.707400 0.706700
vn -0.762200 0.647300 0.000000
vn -0.705700 -0.708500 0.000000
vn -0.808800 0.588000 0.000000
vn 0.000000 -0.709000 0.705100
vn 0.000000 0.707500 -0.706700
usemtl Material.001
s 1
f 106/1/1 222/2/1 231/3/1
f 122/4/2 263/5/2 269/6/2
f 132/7/3 149/8/3 155/9/3
f 112/10/4 187/11/4 190/12/4
f 123/1/5 317/13/5 320/14/5
f 111/15/6 297/16/6 300/17/6
f 154/18/2 169/19/2 152/20/2
f 135/21/3 151/22/3 146/23/3
f 126/24/3 145/23/3 148/8/3
f 140/25/3 156/9/3 153/22/3
f 161/26/3 157/27/3 176/28/3
f 147/29/4 158/30/4 150/31/4
f 11/32/6 177/33/6 9/34/6
f 10/35/5 163/36/5 12/37/5
f 188/38/5 207/39/5 191/40/5
f 6/25/4 189/12/4 192/41/4
f 105/1/4 183/42/4 186/11/4
f 142/7/4 193/41/4 184/42/4
f 205/43/4 201/44/4 211/45/4
f 185/20/3 195/46/3 18/47/3
f 194/48/6 212/49/6 17/50/6
f 20/51/1 202/52/1 19/53/1
f 223/54/6 253/55/6 232/56/6
f 118/4/1 227/57/1 225/58/1
f 120/7/1 230/3/1 228/57/1
f 114/59/1 224/58/1 221/2/1
f 363/60/1 246/61/1 250/62/1
f 229/56/5 240/63/5 226/54/5
f 27/31/4 247/64/4 28/29/4
f 26/65/2 233/66/2 25/67/2
f 264/40/6 290/68/6 270/38/6
f 125/24/2 265/69/2 260/70/2
f 119/71/2 259/70/2 262/5/2
f 134/7/2 268/6/2 266/69/2
f 283/72/2 287/73/2 360/74/2
f 267/75/5 277/76/5 261/77/5
f 35/67/1 284/78/1 36/65/1
f 34/79/3 271/80/3 33/35/3
f 304/31/1 314/81/1 315/82/1
f 138/83/6 307/84/6 298/16/6
f 4/4/6 301/17/6 303/85/6
f 8/71/6 305/85/6 308/84/6
f 313/1/6 311/48/6 309/50/6
f 299/86/3 310/87/3 312/51/3
f 43/88/2 47/65/2 45/89/2
f 42/90/4 46/51/4 48/53/4
f 326/91/1 335/92/1 334/93/1
f 133/10/5 323/94/5 318/13/5
f 1/95/5 321/14/5 327/96/5
f 5/97/5 328/96/5 325/94/5
f 329/98/5 333/4/5 336/99/5
f 319/100/3 330/101/3 332/54/3
f 49/102/2 53/103/2 55/88/2
f 52/93/4 56/51/4 54/87/4
f 340/104/4 197/105/4 220/106/4
f 213/107/4 341/104/4 21/106/4
f 208/108/4 22/109/4 196/83/4
f 209/110/7 350/111/7 356/112/7
f 203/113/8 343/114/8 345/115/8
f 204/116/4 216/117/4 337/118/4
f 24/117/4 60/119/4 62/118/4
f 347/120/4 351/121/4 354/122/4
f 346/123/4 344/124/4 355/122/4
f 342/35/9 353/125/9 348/126/9
f 59/127/10 65/126/10 66/128/10
f 339/129/11 68/130/11 64/131/11
f 57/132/12 63/115/12 67/37/12
f 377/133/3 171/134/3 175/135/3
f 37/136/2 272/137/2 291/119/2
f 29/138/1 234/139/1 254/140/1
f 178/141/3 378/133/3 13/135/3
f 164/142/3 14/143/3 170/144/3
f 39/73/2 292/145/2 361/74/2
f 278/146/2 40/147/2 285/148/2
f 255/149/1 364/60/1 31/62/1
f 241/150/1 32/151/1 248/152/1
f 365/153/13 415/154/13 411/155/13
f 366/156/14 369/157/14 409/158/14
f 236/159/1 239/160/1 367/161/1
f 30/160/1 242/162/1 368/161/1
f 296/163/2 279/164/2 372/165/2
f 273/166/2 38/163/2 373/165/2
f 293/167/15 395/168/15 404/169/15
f 286/125/16 375/170/16 398/171/16
f 160/172/17 385/173/17 383/174/17
f 358/175/18 380/176/18 386/65/18
f 181/177/3 165/117/3 357/178/3
f 69/179/3 16/177/3 359/178/3
f 389/180/3 387/181/3 391/182/3
f 384/183/3 88/184/3 92/185/3
f 379/186/19 393/187/19 388/188/19
f 72/34/20 89/89/20 390/189/20
f 71/190/18 90/189/18 382/176/18
f 70/191/19 87/192/19 91/187/19
f 376/193/2 403/194/2 400/195/2
f 396/196/2 401/195/2 98/194/2
f 76/197/21 96/158/21 402/198/21
f 274/199/22 397/200/22 93/201/22
f 84/202/15 405/169/15 95/203/15
f 83/204/23 97/198/23 94/205/23
f 408/206/1 370/207/1 414/208/1
f 410/209/1 104/208/1 371/207/1
f 78/201/24 100/210/24 407/211/24
f 243/168/14 413/167/14 103/157/14
f 77/130/13 99/129/13 416/154/13
f 79/212/25 101/174/25 102/213/25
f 121/7/1 106/1/1 231/3/1
f 131/7/2 122/4/2 269/6/2
f 141/25/3 132/7/3 155/9/3
f 137/25/4 112/10/4 190/12/4
f 108/95/5 123/1/5 320/14/5
f 115/4/6 111/15/6 300/17/6
f 168/81/2 152/20/2 169/19/2
f 154/18/2 173/82/2 169/19/2
f 127/24/3 135/21/3 146/23/3
f 130/7/3 126/24/3 148/8/3
f 136/21/3 140/25/3 153/22/3
f 162/81/4 150/31/4 158/30/4
f 147/29/4 180/214/4 158/30/4
f 174/101/6 9/34/6 177/33/6
f 11/32/6 15/54/6 177/33/6
f 182/47/5 12/37/5 163/36/5
f 10/35/5 167/20/5 163/36/5
f 215/141/5 191/40/5 207/39/5
f 188/38/5 200/215/5 207/39/5
f 143/7/4 6/25/4 192/41/4
f 110/10/4 105/1/4 186/11/4
f 107/1/4 142/7/4 184/42/4
f 199/214/3 18/47/3 195/46/3
f 185/20/3 218/81/3 195/46/3
f 219/216/6 17/50/6 212/49/6
f 194/48/6 206/217/6 212/49/6
f 23/92/1 19/53/1 202/52/1
f 20/51/1 217/93/1 202/52/1
f 251/218/6 232/56/6 253/55/6
f 223/54/6 257/32/6 253/55/6
f 113/59/1 118/4/1 225/58/1
f 116/4/1 120/7/1 228/57/1
f 109/1/1 114/59/1 221/2/1
f 238/90/5 226/54/5 240/63/5
f 229/56/5 244/86/5 240/63/5
f 245/219/4 28/29/4 247/64/4
f 27/31/4 252/93/4 247/64/4
f 258/103/2 25/67/2 233/66/2
f 26/65/2 237/88/2 233/66/2
f 288/217/6 270/38/6 290/68/6
f 264/40/6 276/216/6 290/68/6
f 117/71/2 125/24/2 260/70/2
f 124/4/2 119/71/2 262/5/2
f 129/24/2 134/7/2 266/69/2
f 294/220/5 261/77/5 277/76/5
f 267/75/5 281/88/5 277/76/5
f 282/32/1 36/65/1 284/78/1
f 35/67/1 289/218/1 284/78/1
f 275/20/3 33/35/3 271/80/3
f 34/79/3 295/18/3 271/80/3
f 306/91/1 304/31/1 315/82/1
f 2/15/6 138/83/6 298/16/6
f 128/71/6 4/4/6 303/85/6
f 139/83/6 8/71/6 308/84/6
f 316/221/6 313/1/6 309/50/6
f 302/90/3 299/86/3 312/51/3
f 41/220/2 43/88/2 45/89/2
f 44/100/4 42/90/4 48/53/4
f 324/31/1 326/91/1 334/93/1
f 3/1/5 133/10/5 318/13/5
f 144/97/5 1/95/5 327/96/5
f 7/10/5 5/97/5 325/94/5
f 331/222/5 329/98/5 336/99/5
f 322/90/3 319/100/3 332/54/3
f 51/75/2 49/102/2 55/88/2
f 50/219/4 52/93/4 54/87/4
f 338/131/7 209/110/7 356/112/7
f 214/132/8 203/113/8 345/115/8
f 349/223/4 347/120/4 354/122/4
f 352/121/4 346/123/4 355/122/4
f 198/127/9 342/35/9 348/126/9
f 210/224/10 59/127/10 66/128/10
f 58/112/11 339/129/11 64/131/11
f 61/211/12 57/132/12 67/37/12
f 249/203/13 365/153/13 411/155/13
f 235/197/14 366/156/14 409/158/14
f 362/202/15 293/167/15 404/169/15
f 280/225/16 286/125/16 398/171/16
f 179/226/17 160/172/17 383/174/17
f 159/32/18 358/175/18 386/65/18
f 381/185/3 389/180/3 391/182/3
f 392/182/3 384/183/3 92/185/3
f 172/205/19 379/186/19 388/188/19
f 166/190/20 72/34/20 390/189/20
f 86/175/18 71/190/18 382/176/18
f 85/186/19 70/191/19 91/187/19
f 399/102/2 376/193/2 400/195/2
f 394/227/2 396/196/2 98/194/2
f 374/204/21 76/197/21 402/198/21
f 74/228/22 274/199/22 93/201/22
f 75/155/15 84/202/15 95/203/15
f 73/188/23 83/204/23 94/205/23
f 406/229/1 408/206/1 414/208/1
f 412/230/1 410/209/1 371/207/1
f 256/212/24 78/201/24 407/211/24
f 82/156/14 243/168/14 103/157/14
f 81/153/13 77/130/13 416/154/13
f 80/231/25 79/212/25 102/213/25
