# Blender v2.76 (sub 0) OBJ File: 'SkyCube.blend'
# www.blender.org
o Cube_Cube.001
v -250.000000 -250.000000 250.000000
v -250.000000 250.000000 250.000000
v -250.000000 -250.000000 -250.000000
v -250.000000 250.000000 -250.000000
v 250.000000 -250.000000 250.000000
v 250.000000 250.000000 250.000000
v 250.000000 -250.000000 -250.000000
v 250.000000 250.000000 -250.000000
vt 0.666667 0.333333
vt 0.666667 0.000000
vt 0.333333 0.000000
vt 0.333333 0.666667
vt 0.333333 0.333333
vt 0.000000 0.333333
vt 0.000000 0.000000
vt 0.666667 0.666667
vt 1.000000 0.333333
vt 0.000000 1.000000
vt 0.333333 1.000000
vt 0.000000 0.666667
vt 1.000000 0.000000
vn 1.000000 0.000000 0.000000
vn 0.000000 0.000000 1.000000
vn -1.000000 0.000000 0.000000
vn 0.000000 0.000000 -1.000000
vn 0.000000 1.000000 0.000000
vn 0.000000 -1.000000 0.000000
s off
f 1/1/1 3/2/1 4/3/1
f 3/4/2 7/5/2 8/6/2
f 7/5/3 5/3/3 6/7/3
f 5/4/4 1/8/4 2/1/4
f 5/2/5 7/1/5 3/9/5
f 2/10/6 4/11/6 8/4/6
f 2/5/1 1/1/1 4/3/1
f 4/12/2 3/4/2 8/6/2
f 8/6/3 7/5/3 6/7/3
f 6/5/4 5/4/4 2/1/4
f 1/13/5 5/2/5 3/9/5
f 6/12/6 2/10/6 8/4/6
